# xmcd
#
# Track frame offsets:
#	150
#	17580
#	34387
#	57122
#	77692
#	99280
#	121620
#	141852
#	162930
#	183095
#
# Disc length: 2734 seconds
#
# Revision: 1
# Processed by: cddbd v1.5.2PL0 Copyright (c) Steve Scherf et al.
# Submitted via: EZCDAudioConverter 8.0.2.1
#
DISCID=700aac0a
DTITLE=Nguyễn Hưng - Hãy Cho Tôi
DYEAR=2001
DGENRE=World Pop
TTITLE0=Hãy Cho Tôi
TTITLE1=Xe hoa một chiếc
TTITLE2=Vì người bỏ tôi
TTITLE3=Đời tôi là của tôi
TTITLE4=Mơ thấy em về
TTITLE5=Chuyện người đàn bà ngàn năm trước
TTITLE6=Lung linh hạt mưa
TTITLE7=Đừng nói yêu anh
TTITLE8=Tình ta trao người
TTITLE9=Tình không đổi thay
EXTD=
EXTT0=
EXTT1=
EXTT2=
EXTT3=
EXTT4=
EXTT5=
EXTT6=
EXTT7=
EXTT8=
EXTT9=
PLAYORDER=
